<svg width="60" height="61" viewBox="0 0 60 61" fill="none" xmlns="http://www.w3.org/2000/svg">
<path d="M23.8594 27.661C24.442 27.2321 24.7232 26.5241 24.7232 25.5506C24.7433 25.0876 24.6496 24.6315 24.4487 24.2162C24.2679 23.8826 24 23.6035 23.6719 23.406C23.3316 23.1963 22.9538 23.0574 22.5603 22.9975C22.1317 22.9158 21.6964 22.875 21.2679 22.8818H16.5603V28.3078H21.6562C22.5335 28.3146 23.2768 28.0968 23.8594 27.661ZM24.6496 32.5628C23.9933 32.0522 23.1161 31.8003 22.0246 31.8003H16.5469V38.1999H21.9174C22.4196 38.1999 22.8817 38.1522 23.3304 38.0569C23.7549 37.9725 24.1595 37.8061 24.5223 37.5667C24.8638 37.3421 25.1384 37.0357 25.346 36.6409C25.5469 36.246 25.6473 35.7422 25.6473 35.1363C25.6473 33.9312 25.3125 33.0802 24.6496 32.5628ZM30 0C13.433 0 0 13.6569 0 30.5C0 47.3431 13.433 61 30 61C46.567 61 60 47.3431 60 30.5C60 13.6569 46.567 0 30 0ZM35.7924 19.5323H45.0603V21.8266H35.7924V19.5323ZM30 38.4518C29.5665 39.2883 28.9475 40.0109 28.192 40.5623C27.4018 41.1205 26.5246 41.529 25.5938 41.7673C24.6199 42.0326 23.6153 42.1631 22.6071 42.1554H11.5179V18.9331H22.2991C23.3906 18.9331 24.3817 19.0353 25.2857 19.2259C26.183 19.4165 26.9464 19.7433 27.5893 20.1858C28.2254 20.6283 28.7277 21.2206 29.0826 21.9559C29.4308 22.6844 29.6116 23.5967 29.6116 24.6791C29.6116 25.8501 29.3504 26.8169 28.8281 27.5998C28.2991 28.3827 27.5357 29.0158 26.4978 29.5128C27.9107 29.9213 28.9487 30.6498 29.6317 31.671C30.3281 32.7058 30.6696 33.9449 30.6696 35.4018C30.6696 36.5864 30.4487 37.6008 30 38.4518ZM48.6696 34.8571H36.7232C36.7232 36.1779 37.1719 37.4442 37.8482 38.125C38.5312 38.799 39.5089 39.1394 40.7879 39.1394C41.7121 39.1394 42.4955 38.9011 43.1652 38.4314C43.8281 37.9616 44.2299 37.4646 44.3772 36.9472H48.3817C47.7388 38.9692 46.7612 40.4125 45.4353 41.2839C44.1228 42.1554 42.5156 42.5911 40.6473 42.5911C39.3415 42.5911 38.1696 42.3732 37.1183 41.9579C36.1071 41.5563 35.1964 40.9435 34.4464 40.1538C33.7069 39.3428 33.1353 38.3889 32.7656 37.3489C32.3571 36.1983 32.1562 34.9865 32.1696 33.7679C32.1696 32.5084 32.3772 31.3374 32.779 30.2481C33.5491 28.1308 35.1496 26.4356 37.192 25.5574C38.2835 25.0944 39.4554 24.8629 40.6406 24.8766C42.0469 24.8766 43.2656 25.1489 44.3237 25.7071C45.3422 26.2402 46.2266 27.0042 46.9085 27.9402C47.5848 28.8729 48.0603 29.9349 48.3616 31.1331C48.6496 32.3109 48.75 33.55 48.6696 34.8571ZM40.5 28.3487C39.7768 28.3487 39.1674 28.478 38.6987 28.7299C38.2299 28.9818 37.8415 29.295 37.5469 29.6558C37.2663 30.0042 37.0589 30.4074 36.9375 30.8404C36.8304 31.2012 36.7567 31.5689 36.7299 31.9433H44.1295C44.0223 30.7655 43.6205 29.8941 43.0848 29.2814C42.5223 28.6754 41.6183 28.3487 40.5 28.3487Z" fill="url(#paint0_linear_5_21)"/>
<defs>
<linearGradient id="paint0_linear_5_21" x1="30" y1="0" x2="30" y2="61" gradientUnits="userSpaceOnUse">
<stop stop-color="#09C7FB"/>
<stop offset="1" stop-color="#C471ED"/>
</linearGradient>
</defs>
</svg>
