<svg width="140" height="140" viewBox="0 0 140 140" fill="none" xmlns="http://www.w3.org/2000/svg">
<path fill-rule="evenodd" clip-rule="evenodd" d="M27.4175 11.6667C19.8825 11.6667 14.311 18.2612 14.564 25.4057C14.8005 32.2807 14.4925 41.1742 12.254 48.4287C9.999 55.6997 6.204 60.3087 0 60.9027V67.5852C6.204 68.1737 10.0045 72.7828 12.2485 80.0593C14.4925 87.3138 14.8005 96.2073 14.5585 103.077C14.311 110.227 19.8825 116.821 27.4175 116.821H104.594C112.129 116.821 117.7 110.227 117.447 103.077C117.211 96.2073 117.519 87.3138 119.757 80.0593C122.007 72.7828 125.796 68.1792 132 67.5852V60.9027C125.796 60.3087 122.007 55.6997 119.757 48.4287C117.519 41.1687 117.211 32.2752 117.447 25.4057C117.7 18.2557 112.123 11.6667 104.594 11.6667H27.4175ZM89.485 76.3962C89.485 86.2412 82.1425 92.2087 69.96 92.2087H49.2195C48.6258 92.2087 48.0564 91.9729 47.6366 91.5531C47.2168 91.1333 46.981 90.5639 46.981 89.9702V38.5122C46.9825 37.9195 47.2189 37.3516 47.6386 36.9329C48.0582 36.5143 48.6268 36.2792 49.2195 36.2792H69.8445C80.003 36.2792 86.6745 41.7792 86.6745 50.2327C86.6745 56.1617 82.1865 61.4693 76.472 62.4043V62.7122C84.2545 63.5647 89.4905 68.9547 89.4905 76.3962H89.485ZM67.705 43.3687H55.88V60.0777H65.8405C73.5405 60.0777 77.7865 56.9757 77.7865 51.4317C77.7865 46.2397 74.1345 43.3687 67.705 43.3687ZM55.88 66.7052V85.1137H68.145C76.1585 85.1137 80.41 81.8962 80.41 75.8517C80.41 69.8017 76.043 66.7052 67.628 66.7052H55.88V66.7052Z" fill="url(#paint0_linear_57_18)"/>
<defs>
<linearGradient id="paint0_linear_57_18" x1="66" y1="11.6667" x2="66" y2="116.821" gradientUnits="userSpaceOnUse">
<stop stop-color="#09C7FB"/>
<stop offset="1" stop-color="#C471ED"/>
</linearGradient>
</defs>
</svg>
