<svg width="56" height="56" viewBox="0 0 56 56" fill="none" xmlns="http://www.w3.org/2000/svg">
<g clip-path="url(#clip0_5_8)">
<path d="M21.1646 1.84914C21.5001 2.25687 21.7057 2.75585 21.7547 3.28162C21.8037 3.80739 21.6939 4.33578 21.4396 4.79851C19.4522 8.44733 18.4143 12.5373 18.4214 16.6923C18.4214 30.5145 29.6896 41.707 43.5771 41.707C45.3886 41.707 47.1521 41.5179 48.8467 41.157C49.3662 41.0445 49.9074 41.0875 50.4025 41.2807C50.8977 41.4739 51.325 41.8086 51.6311 42.2432C51.9542 42.6951 52.1189 43.241 52.0996 43.7962C52.0804 44.3513 51.8782 44.8845 51.5246 45.3129C48.8285 48.6247 45.4273 51.2931 41.569 53.1235C37.7107 54.954 33.4925 55.9003 29.222 55.8935C13.3752 55.8935 0.539551 43.1266 0.539551 27.3966C0.539551 15.5579 7.80643 5.40351 18.1533 1.09976C18.6687 0.881935 19.2409 0.837226 19.7839 0.972354C20.3269 1.10748 20.8113 1.41515 21.1646 1.84914Z" fill="url(#paint0_linear_5_8)"/>
<path d="M37.6439 11.7148C37.6932 11.566 37.7882 11.4364 37.9153 11.3446C38.0424 11.2528 38.1953 11.2034 38.3521 11.2034C38.5089 11.2034 38.6617 11.2528 38.7888 11.3446C38.916 11.4364 39.0109 11.566 39.0602 11.7148L40.3905 15.7092C40.9852 17.4898 42.3808 18.8855 44.1614 19.4802L48.1558 20.8105C48.3047 20.8598 48.4342 20.9547 48.526 21.0818C48.6179 21.209 48.6673 21.3618 48.6673 21.5186C48.6673 21.6754 48.6179 21.8282 48.526 21.9554C48.4342 22.0825 48.3047 22.1774 48.1558 22.2267L44.1614 23.557C43.2833 23.8496 42.4853 24.3427 41.8307 24.9973C41.1762 25.6518 40.6831 26.4498 40.3905 27.328L39.0602 31.3223C39.0109 31.4712 38.916 31.6007 38.7888 31.6926C38.6617 31.7844 38.5089 31.8338 38.3521 31.8338C38.1953 31.8338 38.0424 31.7844 37.9153 31.6926C37.7882 31.6007 37.6932 31.4712 37.6439 31.3223L36.3136 27.328C36.021 26.4498 35.5279 25.6518 34.8734 24.9973C34.2189 24.3427 33.4209 23.8496 32.5427 23.557L28.5483 22.2267C28.3995 22.1774 28.2699 22.0825 28.1781 21.9554C28.0863 21.8282 28.0369 21.6754 28.0369 21.5186C28.0369 21.3618 28.0863 21.209 28.1781 21.0818C28.2699 20.9547 28.3995 20.8598 28.5483 20.8105L32.5427 19.4802C33.4209 19.1876 34.2189 18.6945 34.8734 18.0399C35.5279 17.3854 36.021 16.5874 36.3136 15.7092L37.6439 11.7148ZM48.1936 1.23391C48.2276 1.13603 48.2912 1.05116 48.3756 0.991088C48.46 0.93102 48.561 0.898743 48.6646 0.898743C48.7682 0.898743 48.8692 0.93102 48.9536 0.991088C49.038 1.05116 49.1016 1.13603 49.1355 1.23391L50.0224 3.89453C50.4177 5.08391 51.3493 6.01547 52.5386 6.41078L55.1993 7.29766C55.2971 7.33159 55.382 7.39518 55.4421 7.47958C55.5021 7.56398 55.5344 7.665 55.5344 7.7686C55.5344 7.87219 55.5021 7.97321 55.4421 8.05761C55.382 8.14201 55.2971 8.2056 55.1993 8.23953L52.5386 9.12641C51.9525 9.32139 51.4199 9.65034 50.9831 10.0871C50.5463 10.5239 50.2174 11.0565 50.0224 11.6427L49.1355 14.3033C49.1016 14.4012 49.038 14.486 48.9536 14.5461C48.8692 14.6062 48.7682 14.6384 48.6646 14.6384C48.561 14.6384 48.46 14.6062 48.3756 14.5461C48.2912 14.486 48.2276 14.4012 48.1936 14.3033L47.3068 11.6427C47.1118 11.0565 46.7828 10.5239 46.346 10.0871C45.9093 9.65034 45.3766 9.32139 44.7905 9.12641L42.1299 8.23953C42.032 8.2056 41.9471 8.14201 41.8871 8.05761C41.827 7.97321 41.7947 7.87219 41.7947 7.7686C41.7947 7.665 41.827 7.56398 41.8871 7.47958C41.9471 7.39518 42.032 7.33159 42.1299 7.29766L44.7905 6.41078C45.9799 6.01547 46.9114 5.08391 47.3068 3.89453L48.1936 1.23735V1.23391Z" fill="url(#paint1_linear_5_8)"/>
</g>
<defs>
<linearGradient id="paint0_linear_5_8" x1="26.3204" y1="0.895844" x2="26.3204" y2="55.8935" gradientUnits="userSpaceOnUse">
<stop stop-color="#C471ED"/>
<stop offset="0.510436" stop-color="#C471ED"/>
<stop offset="1" stop-color="#09C7FB"/>
</linearGradient>
<linearGradient id="paint1_linear_5_8" x1="41.7856" y1="0.898743" x2="41.7856" y2="31.8338" gradientUnits="userSpaceOnUse">
<stop stop-color="#C471ED"/>
<stop offset="0.510436" stop-color="#C471ED"/>
<stop offset="1" stop-color="#09C7FB"/>
</linearGradient>
<clipPath id="clip0_5_8">
<rect width="55" height="55" fill="white" transform="translate(0.539551 0.893616)"/>
</clipPath>
</defs>
</svg>
