<svg width="254" height="254" viewBox="0 0 254 254" fill="none" xmlns="http://www.w3.org/2000/svg">
<path d="M164.681 46.736C165.287 45.163 165.244 43.4136 164.56 41.8726C163.877 40.3317 162.609 39.1253 161.036 38.5191C159.463 37.9128 157.714 37.9562 156.173 38.6397C154.632 39.3233 153.425 40.591 152.819 42.164L89.3191 207.264C89.0189 208.043 88.8751 208.873 88.8958 209.708C88.9165 210.542 89.1013 211.364 89.4398 212.127C89.7782 212.89 90.2637 213.579 90.8684 214.155C91.4731 214.73 92.1852 215.181 92.964 215.481C93.7429 215.781 94.5732 215.925 95.4077 215.904C96.2421 215.884 97.0643 215.699 97.8273 215.36C98.5904 215.022 99.2792 214.536 99.8546 213.932C100.43 213.327 100.881 212.615 101.181 211.836L164.681 46.736V46.736ZM73.9775 77.724C74.6132 78.2661 75.1356 78.9284 75.5148 79.6728C75.8941 80.4172 76.1227 81.2292 76.1876 82.0621C76.2525 82.895 76.1523 83.7326 75.893 84.5267C75.6336 85.3209 75.22 86.0561 74.676 86.6902L40.1193 127L74.6633 167.322C75.6841 168.61 76.1663 170.242 76.0088 171.877C75.8513 173.512 75.0662 175.023 73.8185 176.091C72.5708 177.16 70.9576 177.703 69.3177 177.607C67.6777 177.512 66.1388 176.784 65.024 175.577L26.924 131.127C25.9402 129.977 25.3996 128.513 25.3996 127C25.3996 125.486 25.9402 124.023 26.924 122.872L65.024 78.4225C66.1204 77.1443 67.6797 76.354 69.3587 76.2254C71.0378 76.0968 72.6992 76.6404 73.9775 77.7367V77.724ZM180.023 182.626C179.389 182.084 178.868 181.422 178.49 180.679C178.112 179.936 177.884 179.125 177.819 178.294C177.754 177.462 177.853 176.626 178.112 175.833C178.37 175.041 178.782 174.306 179.324 173.672L213.893 133.35L179.324 93.0402C178.781 92.4064 178.368 91.6719 178.109 90.8787C177.85 90.0854 177.75 89.2489 177.814 88.4169C177.879 87.5849 178.106 86.7737 178.484 86.0296C178.862 85.2855 179.382 84.6232 180.016 84.0803C180.65 83.5374 181.384 83.1247 182.178 82.8657C182.971 82.6067 183.807 82.5065 184.639 82.5707C185.471 82.635 186.283 82.8625 187.027 83.2403C187.771 83.6181 188.433 84.1387 188.976 84.7725L227.076 129.222C228.06 130.373 228.6 131.836 228.6 133.35C228.6 134.863 228.06 136.327 227.076 137.477L188.976 181.927C188.434 182.561 187.772 183.082 187.029 183.46C186.286 183.838 185.475 184.066 184.644 184.131C183.813 184.196 182.976 184.096 182.184 183.838C181.391 183.58 180.656 183.168 180.023 182.626V182.626Z" fill="black"/>
<path d="M164.681 46.736C165.287 45.163 165.244 43.4136 164.56 41.8726C163.877 40.3317 162.609 39.1253 161.036 38.5191C159.463 37.9128 157.714 37.9562 156.173 38.6397C154.632 39.3233 153.425 40.591 152.819 42.164L89.3191 207.264C89.0189 208.043 88.8751 208.873 88.8958 209.708C88.9165 210.542 89.1013 211.364 89.4398 212.127C89.7782 212.89 90.2637 213.579 90.8684 214.155C91.4731 214.73 92.1852 215.181 92.964 215.481C93.7429 215.781 94.5732 215.925 95.4077 215.904C96.2421 215.884 97.0643 215.699 97.8273 215.36C98.5904 215.022 99.2792 214.536 99.8546 213.932C100.43 213.327 100.881 212.615 101.181 211.836L164.681 46.736V46.736ZM73.9775 77.724C74.6132 78.2661 75.1356 78.9284 75.5148 79.6728C75.8941 80.4172 76.1227 81.2292 76.1876 82.0621C76.2525 82.895 76.1523 83.7326 75.893 84.5267C75.6336 85.3209 75.22 86.0561 74.676 86.6902L40.1193 127L74.6633 167.322C75.6841 168.61 76.1663 170.242 76.0088 171.877C75.8513 173.512 75.0662 175.023 73.8185 176.091C72.5708 177.16 70.9576 177.703 69.3177 177.607C67.6777 177.512 66.1388 176.784 65.024 175.577L26.924 131.127C25.9402 129.977 25.3996 128.513 25.3996 127C25.3996 125.486 25.9402 124.023 26.924 122.872L65.024 78.4225C66.1204 77.1443 67.6797 76.354 69.3587 76.2254C71.0378 76.0968 72.6992 76.6404 73.9775 77.7367V77.724ZM180.023 182.626C179.389 182.084 178.868 181.422 178.49 180.679C178.112 179.936 177.884 179.125 177.819 178.294C177.754 177.462 177.853 176.626 178.112 175.833C178.37 175.041 178.782 174.306 179.324 173.672L213.893 133.35L179.324 93.0402C178.781 92.4064 178.368 91.6719 178.109 90.8787C177.85 90.0854 177.75 89.2489 177.814 88.4169C177.879 87.5849 178.106 86.7737 178.484 86.0296C178.862 85.2855 179.382 84.6232 180.016 84.0803C180.65 83.5374 181.384 83.1247 182.178 82.8657C182.971 82.6067 183.807 82.5065 184.639 82.5707C185.471 82.635 186.283 82.8625 187.027 83.2403C187.771 83.6181 188.433 84.1387 188.976 84.7725L227.076 129.222C228.06 130.373 228.6 131.836 228.6 133.35C228.6 134.863 228.06 136.327 227.076 137.477L188.976 181.927C188.434 182.561 187.772 183.082 187.029 183.46C186.286 183.838 185.475 184.066 184.644 184.131C183.813 184.196 182.976 184.096 182.184 183.838C181.391 183.58 180.656 183.168 180.023 182.626V182.626Z" fill="url(#paint0_linear_314_21)"/>
<defs>
<linearGradient id="paint0_linear_314_21" x1="127" y1="38.0938" x2="127" y2="215.906" gradientUnits="userSpaceOnUse">
<stop stop-color="#C471ED"/>
<stop offset="1" stop-color="#09C7FB"/>
</linearGradient>
</defs>
</svg>
