<svg width="133" height="132" viewBox="0 0 133 132" fill="none" xmlns="http://www.w3.org/2000/svg">
<g opacity="0.9">
<path d="M45.5889 16.5161C34.2158 16.5161 24.9213 25.7495 24.9213 37.0283V37.2217C24.9213 44.6297 29.5866 49.9848 35.5554 53.5928C29.2232 57.1897 24.2231 62.6605 24.2231 70.3345C24.2231 77.2299 27.7938 83.3094 33.1688 86.9956C28.1899 90.8289 24.905 96.7438 24.905 103.447C24.905 114.603 34.1054 123.734 45.3453 123.734C56.9519 123.734 66.4513 114.322 66.4513 102.803V90.7017V82.5322V76.7798C67.1111 80.65 69.1288 84.164 72.1475 86.7C75.1662 89.236 78.9914 90.6306 82.9464 90.6372C87.0835 90.6222 91.0689 89.089 94.1352 86.3325C97.2016 83.576 99.1322 79.7913 99.5554 75.7068C99.9786 71.6223 98.8646 67.5268 96.4277 64.2086C93.9908 60.8905 90.4033 58.5842 86.3558 57.7339H87.6222C98.989 57.7339 108.279 48.4985 108.29 37.2217V37.0283C108.29 25.7408 98.9865 16.5161 87.6222 16.5161H45.5889ZM45.5889 24.7661H87.6222C94.4955 24.7661 99.9773 30.1989 99.9773 37.0283V37.2056C99.971 44.0293 94.493 49.4839 87.6222 49.4839H45.5889C38.7155 49.4839 33.2338 44.0511 33.2338 37.2217V37.0283C33.2338 30.2066 38.7077 24.7661 45.5889 24.7661ZM66.4513 57.7339H79.4883C76.2195 58.4194 73.2319 60.0589 70.9089 62.442C68.5858 64.8251 67.0336 67.8429 66.4513 71.1079V57.7339ZM45.4427 57.8145H58.1388V82.4517H45.0369C38.0529 82.4517 32.5356 77.0354 32.5356 70.3345C32.5356 63.4126 38.2355 57.8145 45.4427 57.8145ZM46.011 90.7822H58.1388V102.803C58.1388 109.862 52.4585 115.484 45.3453 115.484C38.5971 115.484 33.2175 110.145 33.2175 103.447C33.2175 96.3851 38.8973 90.776 46.011 90.7822Z" fill="url(#paint0_linear_31_36)"/>
</g>
<defs>
<linearGradient id="paint0_linear_31_36" x1="66.2565" y1="16.5161" x2="66.2565" y2="123.734" gradientUnits="userSpaceOnUse">
<stop stop-color="#09C7FB"/>
<stop offset="1" stop-color="#C471ED"/>
</linearGradient>
</defs>
</svg>
