<svg width="143" height="141" viewBox="0 0 143 141" fill="none" xmlns="http://www.w3.org/2000/svg">
<g opacity="0.9" clip-path="url(#clip0_31_26)">
<path d="M76.2653 8.68726C73.9261 8.68726 71.587 9.54786 69.8414 11.269L11.8873 68.4126C8.36121 71.8894 8.36121 77.6038 11.8873 81.0806L69.8414 138.224C73.3676 141.667 79.163 141.667 82.6891 138.224L140.643 81.0806C144.169 77.6038 144.169 71.8894 140.643 68.4126L82.6891 11.269C80.9086 9.54786 78.6044 8.68726 76.2653 8.68726ZM76.1605 17.4998C76.2303 17.4309 76.2653 17.4309 76.3351 17.4998L134.324 74.6777C134.394 74.7466 134.394 74.781 134.324 74.8499L76.4049 131.993C76.3002 132.062 76.2653 132.062 76.1605 131.993L18.2064 74.8499C18.1366 74.781 18.1366 74.7466 18.2064 74.6777L57.4127 35.9854L66.7692 45.1421C66.3851 46.1748 66.2106 47.2419 66.2106 48.3091C66.2106 52.0613 68.3751 55.5037 71.7965 57.1904V95.6074C68.3751 97.2942 66.2106 100.737 66.2106 104.489C66.2106 109.962 70.7142 114.403 76.2653 114.403C81.8163 114.403 86.3199 109.962 86.3199 104.489C86.3199 100.737 84.1554 97.2942 80.734 95.6074V58.946L94.6989 72.6812C94.3148 73.7139 94.1403 74.781 94.1403 75.8481C94.1403 81.3215 98.6439 85.7622 104.195 85.7622C109.746 85.7622 114.25 81.3215 114.25 75.8481C114.25 70.3748 109.746 65.9341 104.195 65.9341C103.113 65.9341 102.03 66.1062 100.983 66.4849L85.7614 51.4761C86.1454 50.4434 86.3199 49.3762 86.3199 48.3091C86.3199 42.8357 81.8163 38.395 76.2653 38.395C75.183 38.395 74.1007 38.5671 73.0533 38.9458L63.7667 29.7202L76.1605 17.4998Z" fill="url(#paint0_linear_31_26)"/>
</g>
<defs>
<linearGradient id="paint0_linear_31_26" x1="76.2653" y1="8.68726" x2="76.2653" y2="140.806" gradientUnits="userSpaceOnUse">
<stop stop-color="#09C7FB"/>
<stop offset="1" stop-color="#C471ED"/>
</linearGradient>
<clipPath id="clip0_31_26">
<rect width="143" height="141" fill="white"/>
</clipPath>
</defs>
</svg>
