<svg width="80" height="80" viewBox="0 0 80 80" fill="none" xmlns="http://www.w3.org/2000/svg">
<path d="M34.024 13.6039C35.8425 12.5596 37.903 12.01 40 12.01C42.097 12.01 44.1575 12.5596 45.976 13.6039L74.996 30.2679C75.301 30.4432 75.5543 30.6958 75.7305 31.0002C75.9066 31.3046 75.9994 31.6501 75.9994 32.0019C75.9994 32.3536 75.9066 32.6991 75.7305 33.0036C75.5543 33.308 75.301 33.5606 74.996 33.7359L64 40.0479V57.9999C64.0005 58.2627 63.9491 58.523 63.8489 58.766C63.7487 59.009 63.6016 59.2298 63.416 59.4159L63.408 59.4199L63.4 59.4319L63.372 59.4559L63.28 59.5439L62.96 59.8399C62.569 60.1829 62.1675 60.5138 61.756 60.8319C60.3193 61.935 58.7926 62.9158 57.192 63.7639C51.8982 66.572 45.9925 68.0285 40 68.0039C34.0075 68.0285 28.1018 66.572 22.808 63.7639C21.2088 62.9157 19.6834 61.9349 18.248 60.8319C17.7205 60.4246 17.2107 59.9948 16.72 59.5439C16.5001 59.35 16.3226 59.1128 16.1987 58.8471C16.0749 58.5814 16.0072 58.293 16 57.9999V40.0479L8 35.4559V53.9999C8 54.5303 7.78929 55.039 7.41421 55.4141C7.03914 55.7892 6.53043 55.9999 6 55.9999C5.46957 55.9999 4.96086 55.7892 4.58579 55.4141C4.21071 55.039 4 54.5303 4 53.9999V31.9999C3.99974 31.6408 4.09617 31.2882 4.27916 30.9792C4.46216 30.6703 4.72497 30.4163 5.04 30.2439L34.024 13.6039ZM45.976 50.3959C44.1575 51.4402 42.097 51.9898 40 51.9898C37.903 51.9898 35.8425 51.4402 34.024 50.3959L20 42.3439V57.1079C21.4565 58.3034 23.0282 59.3512 24.692 60.2359C28.212 62.1159 33.392 63.9999 40 63.9999C45.3345 64.027 50.5931 62.7354 55.308 60.2399C56.9722 59.3528 58.5439 58.3023 60 57.1039V42.3439L45.976 50.3919V50.3959ZM43.984 17.0759C42.7717 16.3797 41.398 16.0133 40 16.0133C38.602 16.0133 37.2283 16.3797 36.016 17.0759L10.016 31.9999L36.016 46.9279C37.2283 47.6241 38.602 47.9905 40 47.9905C41.398 47.9905 42.7717 47.6241 43.984 46.9279L69.984 31.9999L43.984 17.0719V17.0759Z" fill="white"/>
</svg>
