<svg width="120" height="120" viewBox="0 0 120 120" fill="none" xmlns="http://www.w3.org/2000/svg">
<path d="M52.65 53.65C52.15 52.1 51.7 50.6 51.2 49.05C50.7 47.5 50.25 46.05 49.85 44.6C49.45 43.2 49.1 41.9 48.75 40.7H48.65C48.2 42.85 47.65 45 46.95 47.15C46.2 49.55 45.45 52.05 44.65 54.55C43.95 57.1 43.2 59.45 42.45 61.55H55.15C54.85 60.495 54.45 59.25 54 57.945C53.55 56.6 53.1 55.15 52.65 53.65V53.65ZM98.75 1.5H21.25C9.5 1.5 0 11 0 22.75V97.25C0 109 9.5 118.5 21.25 118.5H98.75C110.5 118.5 120 109 120 97.25V22.75C120 11 110.5 1.5 98.75 1.5ZM73.5 84.15H63.045C62.7 84.2 62.35 83.95 62.25 83.6L58.15 71.7H39.55L35.75 83.45C35.65 83.9 35.25 84.2 34.8 84.155H25.4C24.85 84.155 24.7 83.85 24.85 83.255L40.95 36.9C41.1 36.4 41.25 35.85 41.45 35.25C41.65 34.2 41.75 33.1 41.75 32C41.7 31.75 41.9 31.5 42.15 31.45H55.1C55.5 31.45 55.7 31.6 55.75 31.85L74 83.35C74.15 83.895 74 84.15 73.5 84.15V84.15ZM90.5 83.4C90.5 83.95 90.305 84.2 89.855 84.2H80.05C79.55 84.2 79.3 83.895 79.3 83.4V44.9C79.3 44.4 79.505 44.2 79.955 44.2H89.855C90.305 44.2 90.5 44.45 90.5 44.9V83.4V83.4ZM89.455 38.25C88.8645 38.8497 88.1525 39.3161 87.3669 39.618C86.5813 39.9198 85.7401 40.0501 84.9 40C83.25 40.05 81.65 39.4 80.445 38.25C79.2995 36.9975 78.6893 35.3465 78.745 33.65C78.695 31.95 79.345 30.35 80.54 29.2C81.75 28.05 83.35 27.45 85 27.45C86.955 27.45 88.445 28.05 89.55 29.2C90.65 30.4 91.25 32 91.2 33.65C91.25 35.35 90.65 37 89.455 38.25V38.25Z" fill="url(#paint0_linear_58_27)"/>
<defs>
<linearGradient id="paint0_linear_58_27" x1="60" y1="1.5" x2="60" y2="118.5" gradientUnits="userSpaceOnUse">
<stop stop-color="#09C7FB"/>
<stop offset="1" stop-color="#C471ED"/>
</linearGradient>
</defs>
</svg>
