<svg width="103" height="103" viewBox="0 0 103 103" fill="none" xmlns="http://www.w3.org/2000/svg">
<path d="M51.5 2.06C24.1947 2.06 2.06 24.1947 2.06 51.5C2.06 78.8053 24.1947 100.94 51.5 100.94C78.8053 100.94 100.94 78.8053 100.94 51.5C100.94 24.1947 78.8053 2.06 51.5 2.06ZM39.3975 71.9918H29.3859V39.7734H39.3975V71.9918ZM34.3299 35.8182C31.1678 35.8182 29.1232 33.578 29.1232 30.8073C29.1232 27.9799 31.2296 25.8066 34.4586 25.8066C37.6877 25.8066 39.6653 27.9799 39.7271 30.8073C39.7271 33.578 37.6877 35.8182 34.3299 35.8182ZM75.9625 71.9918H65.9509V54.1368C65.9509 49.9807 64.4986 47.1585 60.8781 47.1585C58.1126 47.1585 56.4697 49.0692 55.7436 50.9077C55.4758 51.5618 55.4088 52.4888 55.4088 53.4106V71.9867H45.3921V50.0477C45.3921 46.0255 45.2633 42.6626 45.1294 39.7683H53.8278L54.2861 44.2436H54.487C55.8054 42.1424 59.0344 39.0421 64.4368 39.0421C71.0236 39.0421 75.9625 43.4557 75.9625 52.942V71.9918V71.9918Z" fill="url(#paint0_linear_5_19)"/>
<defs>
<linearGradient id="paint0_linear_5_19" x1="51.5" y1="2.06" x2="51.5" y2="100.94" gradientUnits="userSpaceOnUse">
<stop stop-color="#09C7FB"/>
<stop offset="1" stop-color="#C471ED"/>
</linearGradient>
</defs>
</svg>
