<svg width="127" height="99" viewBox="0 0 127 99" fill="none" xmlns="http://www.w3.org/2000/svg">
<path d="M34.1319 76.5246C32.1934 75.8822 30.5862 74.5019 29.6609 72.685L15.5428 46.6003C15.11 45.908 14.8372 45.1287 14.7442 44.3191C14.6511 43.5094 14.7402 42.6899 15.0049 41.92C15.5763 40.4126 16.6622 39.1556 18.0722 38.3694L43.0029 24.1263C45.1134 22.9203 47.7194 22.916 49.7029 24.255C50.9523 25.0981 51.9545 26.4456 51.881 28.61C51.8209 29.7777 51.4658 30.9104 50.8487 31.9029C50.2315 32.8953 49.3724 33.7153 48.3511 34.2867L29.8865 44.8266C29.4907 45.0566 29.1974 45.4277 29.0655 45.8653C28.9336 46.303 28.9729 46.7747 29.1754 47.1857L39.0894 66.9446C39.636 68.0212 39.9414 69.2029 39.9842 70.4075C40.027 71.6121 39.8063 72.8107 39.3374 73.92C38.5269 75.8312 36.9906 77.4163 34.1319 76.5246Z" fill="url(#paint0_linear_87_61)"/>
<path d="M78.2335 23.7151L59.772 91.7743C59.1879 93.9303 57.6638 95.7624 55.5664 96.5475C54.0057 97.1335 52.1621 97.1903 50.554 95.5225C48.9835 93.9011 48.5013 91.51 49.0989 89.3407L67.4603 22.6556C68.0938 20.3538 69.6163 18.3478 71.7647 17.3005C73.4519 16.4747 75.4466 16.2477 77.0995 18.1774C78.3988 19.6898 78.7527 21.7979 78.2335 23.7151Z" fill="url(#paint1_linear_87_61)"/>
<path d="M87.04 42H93L97.56 70H93.16L92.36 64.44V64.52H87.36L86.56 70H82.48L87.04 42ZM91.84 60.72L89.88 46.88H89.8L87.88 60.72H91.84ZM99.6947 42H104.095V53.4H108.815V42H113.215V70H108.815V57.4H104.095V70H99.6947V42Z" fill="url(#paint2_linear_87_61)"/>
<defs>
<linearGradient id="paint0_linear_87_61" x1="21.3213" y1="70.7311" x2="43.7904" y2="21.4696" gradientUnits="userSpaceOnUse">
<stop stop-color="#09C7FB"/>
<stop offset="0.5412" stop-color="#C471ED"/>
<stop offset="1" stop-color="#F64F59"/>
</linearGradient>
<linearGradient id="paint1_linear_87_61" x1="46.7504" y1="94.1732" x2="80.8537" y2="19.4051" gradientUnits="userSpaceOnUse">
<stop stop-color="#09C7FB"/>
<stop offset="0.5412" stop-color="#C471ED"/>
<stop offset="1" stop-color="#F64F59"/>
</linearGradient>
<linearGradient id="paint2_linear_87_61" x1="82" y1="57" x2="127" y2="57" gradientUnits="userSpaceOnUse">
<stop stop-color="#09C7FB"/>
<stop offset="0.5412" stop-color="#C471ED"/>
<stop offset="1" stop-color="#F64F59"/>
</linearGradient>
</defs>
</svg>
