<svg width="141" height="112" viewBox="0 0 141 112" fill="none" xmlns="http://www.w3.org/2000/svg">
<path d="M0 60.8577V0L52.875 30.4289V50.7146L17.625 30.4289V71.0009L0 60.8577Z" fill="url(#paint0_linear_57_20)"/>
<path d="M52.875 30.4289L105.75 0V60.8577L70.5 81.1434L52.875 71.0009L88.125 50.7146V30.4289L52.875 50.7146V30.4289Z" fill="url(#paint1_linear_57_20)"/>
<path d="M52.875 71.001V91.2867L88.125 111.572V91.2867L52.875 71.001Z" fill="url(#paint2_linear_57_20)"/>
<path d="M88.125 111.572L141 81.1435V40.5726L123.375 50.7151V71.0014L88.125 91.2871V111.573V111.572ZM123.375 30.4289V10.1426L141 0V20.2863L123.375 30.4289Z" fill="url(#paint3_linear_57_20)"/>
<defs>
<linearGradient id="paint0_linear_57_20" x1="26.4375" y1="0" x2="26.4375" y2="71.0009" gradientUnits="userSpaceOnUse">
<stop stop-color="#09C7FB"/>
<stop offset="1" stop-color="#C471ED"/>
</linearGradient>
<linearGradient id="paint1_linear_57_20" x1="79.3125" y1="0" x2="79.3125" y2="81.1434" gradientUnits="userSpaceOnUse">
<stop stop-color="#09C7FB"/>
<stop offset="1" stop-color="#C471ED"/>
</linearGradient>
<linearGradient id="paint2_linear_57_20" x1="70.5" y1="71.001" x2="70.5" y2="111.572" gradientUnits="userSpaceOnUse">
<stop stop-color="#09C7FB"/>
<stop offset="1" stop-color="#C471ED"/>
</linearGradient>
<linearGradient id="paint3_linear_57_20" x1="114.562" y1="0" x2="114.563" y2="111.573" gradientUnits="userSpaceOnUse">
<stop stop-color="#09C7FB"/>
<stop offset="1" stop-color="#C471ED"/>
</linearGradient>
</defs>
</svg>
