<svg width="142" height="141" viewBox="0 0 142 141" fill="none" xmlns="http://www.w3.org/2000/svg">
<g opacity="0.9">
<path d="M70.7569 8.69189C68.4216 8.69189 66.0907 9.30023 64.0139 10.5164L24.0764 33.8557C20.0206 36.2175 17.5069 40.5882 17.5069 45.25V96.662C17.5069 101.5 20.1627 105.945 24.4404 108.263L37.5276 115.354C39.5422 116.447 41.7233 116.972 43.9065 116.972C46.2495 116.972 48.563 116.347 50.6841 115.113C54.7666 112.707 57.2017 108.46 57.2017 103.736V47.8318H48.3267V103.736C48.3267 106.001 46.8167 107.144 46.1599 107.523C45.5121 107.902 43.7713 108.693 41.7744 107.609L28.7046 100.535C27.2757 99.7592 26.3819 98.2747 26.3819 96.662V45.25C26.3819 43.699 27.2169 42.2393 28.5659 41.4462L68.5034 18.1068C69.8879 17.2961 71.6258 17.3049 73.0103 18.1068L112.948 41.4462C114.288 42.2393 115.132 43.699 115.132 45.25V96.6964C115.132 98.2827 114.246 99.776 112.826 100.569L72.8889 122.17C71.5577 122.875 69.956 122.875 68.6248 122.17L60.8245 117.936C59.3157 119.787 57.4444 121.382 55.2256 122.704C54.5156 123.144 53.8035 123.489 53.0935 123.754L64.3606 129.915C66.4019 130.973 68.5381 131.516 70.7569 131.516C72.9756 131.516 75.1118 130.973 77.1531 129.915L117.091 108.246C121.351 105.954 124.007 101.543 124.007 96.6964V45.25C124.007 40.5882 121.502 36.2175 117.455 33.8557L77.5171 10.5164C75.4359 9.30023 73.0921 8.69189 70.7569 8.69189ZM83.636 46.5409C69.6135 46.5409 62.5059 51.3941 62.5059 60.9645C62.5059 71.8039 75.0787 73.4165 81.1226 74.1832C81.9923 74.2978 82.7636 74.3957 83.376 74.5103L86.0281 74.975C95.2581 76.5084 97.3819 77.5478 97.3819 80.5C97.3819 81.9276 97.3745 86.2488 83.636 86.2488C71.9831 86.2488 69.5955 82.8153 69.5955 77.66H60.7205C60.7205 85.6089 64.6968 95.0613 83.636 95.0613C102.327 95.0613 106.257 87.1446 106.257 80.5C106.257 69.4139 95.4091 67.5964 87.5015 66.2657L84.9534 65.8354C84.2168 65.7033 83.2877 65.5802 82.2493 65.4568C76.6048 64.7342 71.3809 63.6959 71.3809 60.9817C71.3809 59.0165 71.3708 55.3622 83.636 55.3534C91.7921 55.3534 95.9431 58.0186 95.9431 63.2709H104.818C104.818 55.1898 99.2383 46.5409 83.636 46.5409Z" fill="url(#paint0_linear_31_28)"/>
</g>
<defs>
<linearGradient id="paint0_linear_31_28" x1="70.7569" y1="8.69189" x2="70.7569" y2="131.516" gradientUnits="userSpaceOnUse">
<stop stop-color="#09C7FB"/>
<stop offset="1" stop-color="#C471ED"/>
</linearGradient>
</defs>
</svg>
