<svg width="120" height="120" viewBox="0 0 254 254" fill="none" xmlns="http://www.w3.org/2000/svg">
<g clip-path="url(#clip0_407_8)">
<path d="M104.246 89.1117C100.33 87.5242 96.0967 86.8892 91.7575 86.995C89.0058 86.995 86.5717 86.995 84.5608 87.1009C82.4442 86.995 80.9625 87.1009 80.2217 87.2067V122.767C81.7033 122.873 83.0792 122.978 84.3492 122.978H89.9583C94.0858 122.978 98.2133 122.343 102.129 121.073C105.516 120.121 108.479 118.11 110.807 115.464C113.03 112.818 114.088 109.22 114.088 104.563C114.194 101.283 113.347 98.0017 111.654 95.1442C109.89 92.3963 107.294 90.283 104.246 89.1117ZM209.021 3.17505H44.9792C20.1083 3.17505 0 23.2834 0 48.1542V205.835C0 230.706 20.1083 250.814 44.9792 250.814H209.021C233.892 250.814 254 230.706 254 205.835V48.1542C254 23.2834 233.892 3.17505 209.021 3.17505ZM130.799 126.471C126.577 132.398 120.65 136.843 113.771 139.383C106.574 142.028 98.6367 142.981 89.9583 142.981C87.4183 142.981 85.725 142.981 84.6667 142.875C83.6083 142.769 82.1267 142.769 80.1158 142.769V176.731C80.2217 177.472 79.6925 178.118 78.9517 178.223H58.42C57.5733 178.223 57.15 177.789 57.15 176.837V67.945C57.15 67.2042 57.4675 66.7809 58.2083 66.7809C60.0075 66.7809 61.7008 66.7809 64.135 66.675C66.675 66.5692 69.3208 66.5692 72.1783 66.4634C75.0358 66.3575 78.105 66.3575 81.3858 66.2517C84.6667 66.1459 87.8417 66.1459 91.0167 66.1459C99.695 66.1459 106.892 67.2042 112.818 69.4267C118.11 71.2259 122.978 74.1892 127 78.105C130.387 81.4917 133.032 85.6192 134.726 90.17C136.303 94.615 137.149 99.1659 137.149 103.928C137.16 113.03 135.043 120.544 130.799 126.471V126.471ZM205.846 167.64C202.883 171.873 198.744 175.144 193.992 177.07C188.807 179.282 182.457 180.435 174.826 180.435C169.968 180.435 165.195 180.023 160.443 179.07C156.739 178.424 153.035 177.271 149.648 175.683C148.907 175.271 148.368 174.53 148.474 173.683V155.268C148.474 154.961 148.59 154.527 148.907 154.316C149.214 154.104 149.542 154.21 149.86 154.421C153.987 156.856 158.327 158.56 162.983 159.607C166.994 160.666 171.228 161.195 175.472 161.195C179.493 161.195 182.351 160.655 184.256 159.703C185.949 158.962 187.113 157.163 187.113 155.258C187.113 153.765 186.267 152.4 184.573 151.024C182.88 149.659 179.398 148.071 174.212 146.039C168.815 144.134 163.851 141.594 159.184 138.43C155.872 136.058 153.123 132.987 151.13 129.434C149.448 126.086 148.616 122.375 148.706 118.629C148.706 114.078 149.976 109.739 152.315 105.823C154.961 101.589 158.866 98.2028 163.417 96.0861C168.381 93.5567 174.625 92.3925 182.139 92.3925C186.478 92.3925 190.923 92.71 195.263 93.345C198.438 93.7684 201.507 94.615 204.364 95.7792C204.777 95.885 205.211 96.3084 205.422 96.7317C205.528 97.155 205.634 97.5784 205.634 98.0017V115.253C205.634 115.676 205.422 116.099 205.105 116.311C204.152 116.523 203.623 116.523 203.2 116.311C200.025 114.618 196.638 113.453 193.04 112.713C189.124 111.866 185.208 111.337 181.187 111.337C179.07 111.231 176.847 111.548 174.826 112.078C173.461 112.395 172.286 113.136 171.545 114.194C171.016 115.041 170.699 116.099 170.699 117.052C170.699 118.004 171.122 118.957 171.767 119.803C172.72 120.968 173.979 121.92 175.366 122.661C177.789 123.931 180.34 125.095 182.869 126.153C188.595 128.058 194.098 130.704 199.178 133.879C202.671 136.091 205.528 139.065 207.529 142.663C209.222 146.029 210.069 149.754 209.963 153.554C210.079 158.538 208.598 163.502 205.846 167.64V167.64Z" fill="black"/>
<path d="M104.246 89.1117C100.33 87.5242 96.0967 86.8892 91.7575 86.995C89.0058 86.995 86.5717 86.995 84.5608 87.1009C82.4442 86.995 80.9625 87.1009 80.2217 87.2067V122.767C81.7033 122.873 83.0792 122.978 84.3492 122.978H89.9583C94.0858 122.978 98.2133 122.343 102.129 121.073C105.516 120.121 108.479 118.11 110.807 115.464C113.03 112.818 114.088 109.22 114.088 104.563C114.194 101.283 113.347 98.0017 111.654 95.1442C109.89 92.3963 107.294 90.283 104.246 89.1117ZM209.021 3.17505H44.9792C20.1083 3.17505 0 23.2834 0 48.1542V205.835C0 230.706 20.1083 250.814 44.9792 250.814H209.021C233.892 250.814 254 230.706 254 205.835V48.1542C254 23.2834 233.892 3.17505 209.021 3.17505ZM130.799 126.471C126.577 132.398 120.65 136.843 113.771 139.383C106.574 142.028 98.6367 142.981 89.9583 142.981C87.4183 142.981 85.725 142.981 84.6667 142.875C83.6083 142.769 82.1267 142.769 80.1158 142.769V176.731C80.2217 177.472 79.6925 178.118 78.9517 178.223H58.42C57.5733 178.223 57.15 177.789 57.15 176.837V67.945C57.15 67.2042 57.4675 66.7809 58.2083 66.7809C60.0075 66.7809 61.7008 66.7809 64.135 66.675C66.675 66.5692 69.3208 66.5692 72.1783 66.4634C75.0358 66.3575 78.105 66.3575 81.3858 66.2517C84.6667 66.1459 87.8417 66.1459 91.0167 66.1459C99.695 66.1459 106.892 67.2042 112.818 69.4267C118.11 71.2259 122.978 74.1892 127 78.105C130.387 81.4917 133.032 85.6192 134.726 90.17C136.303 94.615 137.149 99.1659 137.149 103.928C137.16 113.03 135.043 120.544 130.799 126.471V126.471ZM205.846 167.64C202.883 171.873 198.744 175.144 193.992 177.07C188.807 179.282 182.457 180.435 174.826 180.435C169.968 180.435 165.195 180.023 160.443 179.07C156.739 178.424 153.035 177.271 149.648 175.683C148.907 175.271 148.368 174.53 148.474 173.683V155.268C148.474 154.961 148.59 154.527 148.907 154.316C149.214 154.104 149.542 154.21 149.86 154.421C153.987 156.856 158.327 158.56 162.983 159.607C166.994 160.666 171.228 161.195 175.472 161.195C179.493 161.195 182.351 160.655 184.256 159.703C185.949 158.962 187.113 157.163 187.113 155.258C187.113 153.765 186.267 152.4 184.573 151.024C182.88 149.659 179.398 148.071 174.212 146.039C168.815 144.134 163.851 141.594 159.184 138.43C155.872 136.058 153.123 132.987 151.13 129.434C149.448 126.086 148.616 122.375 148.706 118.629C148.706 114.078 149.976 109.739 152.315 105.823C154.961 101.589 158.866 98.2028 163.417 96.0861C168.381 93.5567 174.625 92.3925 182.139 92.3925C186.478 92.3925 190.923 92.71 195.263 93.345C198.438 93.7684 201.507 94.615 204.364 95.7792C204.777 95.885 205.211 96.3084 205.422 96.7317C205.528 97.155 205.634 97.5784 205.634 98.0017V115.253C205.634 115.676 205.422 116.099 205.105 116.311C204.152 116.523 203.623 116.523 203.2 116.311C200.025 114.618 196.638 113.453 193.04 112.713C189.124 111.866 185.208 111.337 181.187 111.337C179.07 111.231 176.847 111.548 174.826 112.078C173.461 112.395 172.286 113.136 171.545 114.194C171.016 115.041 170.699 116.099 170.699 117.052C170.699 118.004 171.122 118.957 171.767 119.803C172.72 120.968 173.979 121.92 175.366 122.661C177.789 123.931 180.34 125.095 182.869 126.153C188.595 128.058 194.098 130.704 199.178 133.879C202.671 136.091 205.528 139.065 207.529 142.663C209.222 146.029 210.069 149.754 209.963 153.554C210.079 158.538 208.598 163.502 205.846 167.64V167.64Z" fill="url(#paint0_linear_407_8)"/>
</g>
<defs>
<linearGradient id="paint0_linear_407_8" x1="127" y1="3.17505" x2="127" y2="250.814" gradientUnits="userSpaceOnUse">
<stop stop-color="#09C7FB"/>
<stop offset="1" stop-color="#C471ED"/>
</linearGradient>
<clipPath id="clip0_407_8">
<rect width="254" height="254" fill="white"/>
</clipPath>
</defs>
</svg>
