<svg width="142" height="141" viewBox="0 0 142 141" fill="none" xmlns="http://www.w3.org/2000/svg">
<g opacity="0.9">
<path d="M47.9629 16.4504C45.521 16.599 43.127 17.2536 40.9253 18.5158C36.5219 21.0402 33.8523 25.4701 32.7783 30.306C31.7043 35.1418 31.9691 40.5261 33.0383 46.2958C33.1827 47.0751 33.453 47.9123 33.6277 48.7055C31.8971 49.2378 30.0837 49.7346 28.4968 50.3406C22.9242 52.4689 18.2481 55.0159 14.7336 58.1893C11.2192 61.3626 8.75342 65.4413 8.75342 70.0311C8.75342 74.6208 11.2192 78.6995 14.7336 81.8729C18.2481 85.0462 22.9242 87.5933 28.4968 89.7215C30.2225 90.3806 32.1833 90.9226 34.0784 91.4943C33.8224 92.7733 33.4596 94.1187 33.281 95.3498C32.4547 101.045 32.4585 106.192 33.541 110.703C34.6235 115.214 36.9742 119.281 40.9253 121.546C44.8764 123.811 49.5887 123.801 54.0645 122.476C58.5402 121.151 63.0484 118.581 67.6023 115.023C68.5808 114.258 69.5675 113.278 70.5491 112.424C71.2577 113.072 71.951 113.835 72.6638 114.438C77.1613 118.242 81.7244 121.154 86.479 122.648C91.2336 124.142 96.4281 124.071 100.832 121.546C105.235 119.022 107.905 114.592 108.979 109.756C110.053 104.92 109.788 99.536 108.719 93.7663C108.574 92.987 108.304 92.1499 108.129 91.3566C109.86 90.8243 111.673 90.3275 113.26 89.7215C118.833 87.5933 123.509 85.0462 127.023 81.8729C130.538 78.6995 133.003 74.6208 133.003 70.0311C133.003 65.4413 130.538 61.3626 127.023 58.1893C123.509 55.0159 118.833 52.4689 113.26 50.3406C111.534 49.6816 109.574 49.1395 107.678 48.5678C107.934 47.2888 108.297 45.9434 108.476 44.7123C109.302 39.0172 109.298 33.8704 108.216 29.3593C107.133 24.8482 104.783 20.7809 100.832 18.5158C96.8804 16.2507 92.1681 16.2616 87.6924 17.5864C83.2167 18.9111 78.7085 21.481 74.1545 25.0391C73.176 25.8037 72.1894 26.7841 71.2078 27.6381C70.4991 26.99 69.8058 26.2273 69.093 25.6243C64.5955 21.82 60.0325 18.9086 55.2778 17.4142C52.9005 16.6671 50.4048 16.3017 47.9629 16.4504ZM48.5696 25.194C49.7424 25.1336 51.0498 25.3292 52.5911 25.8137C55.6736 26.7825 59.4503 29.0337 63.3555 32.337C63.8502 32.7555 64.365 33.3151 64.8635 33.7656C61.8701 36.9471 58.935 40.4833 56.0752 44.3681C51.1803 44.8472 46.5712 45.5787 42.208 46.5024C42.0826 45.9218 41.8621 45.2775 41.7573 44.7123C40.8289 39.7025 40.7664 35.3344 41.4626 32.1993C42.1589 29.0641 43.3612 27.2881 45.3628 26.1407C46.3636 25.5669 47.3967 25.2544 48.5696 25.194ZM93.8979 25.4694C94.9039 25.5147 95.7166 25.7523 96.394 26.1407C97.749 26.9175 98.8925 28.4383 99.6008 31.3903C100.309 34.3424 100.403 38.5257 99.6875 43.4559C99.5535 44.3796 99.2525 45.4439 99.0635 46.4163C94.8762 45.5491 90.473 44.8465 85.803 44.3853C83.1178 40.649 80.3332 37.132 77.448 33.9205C78.1778 33.2939 78.9336 32.5348 79.6494 31.9755C83.5917 28.8953 87.2943 26.8871 90.2232 26.0202C91.6876 25.5868 92.892 25.4241 93.8979 25.4694ZM71.0864 40.0995C72.1263 41.2702 73.1597 42.446 74.1892 43.714C73.0721 43.6905 72.0111 43.5936 70.8784 43.5936C69.8228 43.5936 68.8352 43.6936 67.793 43.714C68.8923 42.4103 69.9858 41.2812 71.0864 40.0995ZM70.8784 52.4061C74.3357 52.4061 77.6883 52.5708 80.9668 52.8019C82.807 55.5213 84.58 58.3402 86.2537 61.2186C87.9248 64.0926 89.5013 67.0246 90.9512 69.9622C89.533 72.9035 87.9848 75.8662 86.2537 78.8436C84.5365 81.7969 82.7379 84.5893 80.8975 87.2602C77.64 87.4883 74.3119 87.6561 70.8784 87.6561C67.4212 87.6561 64.0685 87.4913 60.79 87.2602C58.9499 84.5409 57.1768 81.722 55.5032 78.8436C53.8321 75.9695 52.2555 73.0376 50.8057 70.0999C52.2238 67.1586 53.772 64.1959 55.5032 61.2186C57.2204 58.2653 59.0189 55.4729 60.8594 52.8019C64.1168 52.5739 67.4449 52.4061 70.8784 52.4061ZM49.5923 54.0412C49.0133 54.9866 48.3892 55.8406 47.8242 56.8123C47.2583 57.7856 46.8173 58.749 46.2815 59.7211C45.6606 58.1256 45.1213 56.5735 44.6001 55.0223C46.2551 54.6821 47.8325 54.3191 49.5923 54.0412ZM92.1992 54.0412C93.8432 54.3013 95.3093 54.656 96.8621 54.9706C96.3896 56.4783 95.964 57.9495 95.3887 59.5146C94.8899 58.6181 94.449 57.7004 93.9326 56.8123C93.3827 55.8665 92.7674 54.9745 92.1992 54.0412ZM105.494 57.1393C107.039 57.6121 108.69 58.0406 110.071 58.5679C114.937 60.4266 118.719 62.6144 121.043 64.7126C123.367 66.8108 124.128 68.537 124.128 70.0311C124.128 71.5251 123.367 73.2513 121.043 75.3495C118.719 77.4478 114.937 79.6356 110.071 81.4942C108.783 81.986 107.237 82.3922 105.806 82.8367C104.415 78.5913 102.655 74.2735 100.658 69.9278C102.606 65.551 104.22 61.2826 105.494 57.1393ZM35.9504 57.2254C37.3422 61.4708 39.1014 65.7886 41.0986 70.1343C39.1513 74.5111 37.5373 78.7796 36.2625 82.9228C34.7182 82.45 33.0671 82.0216 31.6863 81.4942C26.8195 79.6356 23.0377 77.4478 20.7139 75.3495C18.3901 73.2513 17.6284 71.5251 17.6284 70.0311C17.6284 68.537 18.3901 66.8108 20.7139 64.7126C23.0377 62.6144 26.8195 60.4266 31.6863 58.5679C32.974 58.0762 34.5202 57.6699 35.9504 57.2254ZM70.8784 61.2186C68.5246 61.2186 66.2672 62.147 64.6028 63.7997C62.9385 65.4524 62.0034 67.6938 62.0034 70.0311C62.0034 72.3683 62.9385 74.6098 64.6028 76.2624C66.2672 77.9151 68.5246 78.8436 70.8784 78.8436C73.2322 78.8436 75.4896 77.9151 77.154 76.2624C78.8184 74.6098 79.7534 72.3683 79.7534 70.0311C79.7534 67.6938 78.8184 65.4524 77.154 63.7997C75.4896 62.147 73.2322 61.2186 70.8784 61.2186ZM95.4753 80.341C96.0962 81.9365 96.6355 83.4886 97.1567 85.0399C95.5018 85.3801 93.9243 85.743 92.1646 86.0209C92.7436 85.0755 93.3676 84.2215 93.9326 83.2498C94.4985 82.2766 94.9395 81.3132 95.4753 80.341ZM46.3682 80.5475C46.8669 81.444 47.3078 82.3617 47.8242 83.2498C48.3742 84.1956 48.9894 85.0876 49.5576 86.0209C47.9136 85.7608 46.4476 85.4061 44.8948 85.0915C45.3673 83.5838 45.7928 82.1127 46.3682 80.5475ZM99.5488 93.5598C99.6742 94.1403 99.8948 94.7846 99.9995 95.3498C100.928 100.36 100.99 104.728 100.294 107.863C99.5979 110.998 98.3956 112.774 96.394 113.921C94.3925 115.069 92.2483 115.217 89.1658 114.248C86.0832 113.28 82.3065 111.028 78.4014 107.725C77.9066 107.307 77.3919 106.747 76.8933 106.297C79.8867 103.115 82.8219 99.5788 85.6816 95.694C90.5765 95.215 95.1856 94.4835 99.5488 93.5598ZM42.6934 93.6458C46.8806 94.513 51.2838 95.2156 55.9539 95.6768C58.639 99.4132 61.4236 102.93 64.3088 106.142C63.579 106.768 62.8232 107.527 62.1074 108.087C58.1652 111.167 54.4625 113.175 51.5337 114.042C48.6048 114.909 46.7178 114.698 45.3628 113.921C44.0078 113.145 42.8644 111.624 42.156 108.672C41.4477 105.72 41.354 101.536 42.0693 96.6063C42.2034 95.6825 42.5043 94.6182 42.6934 93.6458ZM67.5676 96.3481C68.6848 96.3716 69.7458 96.4686 70.8784 96.4686C71.9341 96.4686 72.9216 96.3686 73.9639 96.3481C72.8646 97.6518 71.771 98.7809 70.6704 99.9626C69.6305 98.7919 68.5971 97.6162 67.5676 96.3481Z" fill="url(#paint0_linear_31_30)"/>
</g>
<defs>
<linearGradient id="paint0_linear_31_30" x1="70.8784" y1="16.4177" x2="70.8784" y2="123.637" gradientUnits="userSpaceOnUse">
<stop stop-color="#09C7FB"/>
<stop offset="1" stop-color="#C471ED"/>
</linearGradient>
</defs>
</svg>
