<svg width="57" height="57" viewBox="0 0 57 57" fill="none" xmlns="http://www.w3.org/2000/svg">
<g clip-path="url(#clip0_88_3683)">
<path d="M56.4799 0.520109C56.7265 0.767105 56.8951 1.08111 56.9648 1.42312C57.0345 1.76513 57.0021 2.12008 56.8718 2.44386L36.1416 54.2675C35.9589 54.7239 35.6538 55.1211 35.26 55.4153C34.8661 55.7095 34.3987 55.8893 33.9093 55.935C33.4198 55.9806 32.9272 55.8904 32.4857 55.6741C32.0442 55.4579 31.671 55.124 31.407 54.7093L20.0854 36.9146L2.2907 25.593C1.87502 25.3293 1.54027 24.9559 1.32338 24.514C1.10649 24.0721 1.01589 23.5789 1.06159 23.0887C1.10728 22.5986 1.2875 22.1306 1.58234 21.7364C1.87718 21.3422 2.27519 21.0372 2.73245 20.8549L54.5561 0.131797C54.8799 0.00145291 55.2349 -0.0308936 55.5769 0.0387753C55.9189 0.108444 56.2329 0.277058 56.4799 0.523672V0.520109ZM23.6408 35.8744L33.4768 51.3285L50.3381 9.17698L23.6408 35.8744ZM47.8195 6.6583L5.66795 23.5196L21.1256 33.3521L47.823 6.6583H47.8195Z" fill="white"/>
</g>
<defs>
<clipPath id="clip0_88_3683">
<rect width="57" height="57" fill="white"/>
</clipPath>
</defs>
</svg>
