<svg width="156" height="156" viewBox="0 0 156 156" fill="none" xmlns="http://www.w3.org/2000/svg">
<path d="M120.25 61.815C115.375 60.1361 111.073 57.1174 107.835 53.105C104.267 48.6345 99.7234 45.0394 94.5523 42.5947C89.3811 40.15 83.7193 38.9204 78 39C70.3064 38.4552 62.6898 40.8281 56.667 45.6463C50.6443 50.4645 46.6573 57.3745 45.5 65C47.7794 61.1861 51.21 58.1937 55.2981 56.4533C59.3862 54.7129 63.921 54.3144 68.25 55.315C73.1165 57.0428 77.4123 60.0791 80.665 64.09C84.2527 68.5248 88.8048 72.0828 93.9749 74.4932C99.1449 76.9036 104.797 78.103 110.5 78C118.194 78.5449 125.81 76.1719 131.833 71.3537C137.856 66.5355 141.843 59.6256 143 52C140.762 55.8596 137.342 58.8972 133.246 60.6645C129.149 62.4319 124.593 62.8352 120.25 61.815ZM35.75 94.185C40.6247 95.8639 44.9275 98.8827 48.165 102.895C51.7332 107.366 56.2766 110.961 61.4477 113.405C66.6189 115.85 72.2807 117.08 78 117C85.6936 117.545 93.3102 115.172 99.333 110.354C105.356 105.536 109.343 98.6256 110.5 91C108.221 94.8139 104.79 97.8064 100.702 99.5468C96.6138 101.287 92.079 101.686 87.75 100.685C82.8835 98.9573 78.5877 95.921 75.335 91.91C71.7376 87.4863 67.1837 83.9361 62.0159 81.5267C56.8481 79.1173 51.2012 77.9115 45.5 78C37.8064 77.4552 30.1898 79.8281 24.167 84.6463C18.1443 89.4645 14.1573 96.3745 13 104C15.238 100.141 18.6577 97.1029 22.7541 95.3355C26.8506 93.5682 31.4068 93.1648 35.75 94.185Z" fill="url(#paint0_linear_31_39)"/>
<defs>
<linearGradient id="paint0_linear_31_39" x1="78" y1="38.9233" x2="78" y2="117.077" gradientUnits="userSpaceOnUse">
<stop stop-color="#09C7FB"/>
<stop offset="1" stop-color="#C471ED"/>
</linearGradient>
</defs>
</svg>
