<svg width="254" height="254" viewBox="0 0 254 254" fill="none" xmlns="http://www.w3.org/2000/svg">
<path d="M105.833 74.0832L31.75 74.0832M222.25 74.0832L148.167 74.0832M148.167 76.7497C184.684 86.1486 211.667 119.298 211.667 158.749M42.3334 158.749C42.3334 119.298 69.316 86.1486 105.833 76.7497M38.1 201.083H46.5667C52.4939 201.083 55.4575 201.083 57.7214 199.93C59.7128 198.915 61.3318 197.296 62.3465 195.305C63.5 193.041 63.5 190.077 63.5 184.15V175.683C63.5 169.756 63.5 166.792 62.3465 164.528C61.3318 162.537 59.7128 160.918 57.7214 159.903C55.4575 158.75 52.4939 158.75 46.5667 158.75H38.1C32.1728 158.75 29.2092 158.75 26.9453 159.903C24.9539 160.918 23.3349 162.537 22.3202 164.528C21.1667 166.792 21.1667 169.756 21.1667 175.683V184.15C21.1667 190.077 21.1667 193.041 22.3202 195.305C23.3349 197.296 24.9539 198.915 26.9453 199.93C29.2092 201.083 32.1728 201.083 38.1 201.083ZM122.767 95.2498H131.233C137.161 95.2498 140.124 95.2498 142.388 94.0963C144.379 93.0817 145.999 91.4626 147.013 89.4712C148.167 87.2073 148.167 84.2437 148.167 78.3165V69.8498C148.167 63.9226 148.167 60.959 147.013 58.6951C145.999 56.7037 144.379 55.0847 142.388 54.07C140.124 52.9165 137.161 52.9165 131.233 52.9165H122.767C116.839 52.9165 113.876 52.9165 111.612 54.07C109.621 55.0847 108.002 56.7037 106.987 58.6951C105.833 60.959 105.833 63.9226 105.833 69.8498V78.3165C105.833 84.2437 105.833 87.2073 106.987 89.4712C108.002 91.4626 109.621 93.0817 111.612 94.0963C113.876 95.2498 116.839 95.2498 122.767 95.2498ZM207.433 201.083H215.9C221.827 201.083 224.791 201.083 227.055 199.93C229.046 198.915 230.665 197.296 231.68 195.305C232.833 193.041 232.833 190.077 232.833 184.15V175.683C232.833 169.756 232.833 166.792 231.68 164.528C230.665 162.537 229.046 160.918 227.055 159.903C224.791 158.75 221.827 158.75 215.9 158.75H207.433C201.506 158.75 198.543 158.75 196.279 159.903C194.287 160.918 192.668 162.537 191.654 164.528C190.5 166.792 190.5 169.756 190.5 175.683V184.15C190.5 190.077 190.5 193.041 191.654 195.305C192.668 197.296 194.287 198.915 196.279 199.93C198.543 201.083 201.506 201.083 207.433 201.083ZM232.833 74.0832C232.833 79.9282 228.095 84.6665 222.25 84.6665C216.405 84.6665 211.667 79.9282 211.667 74.0832C211.667 68.2382 216.405 63.4998 222.25 63.4998C228.095 63.4998 232.833 68.2382 232.833 74.0832ZM42.3334 74.0832C42.3334 79.9282 37.595 84.6665 31.75 84.6665C25.905 84.6665 21.1667 79.9282 21.1667 74.0832C21.1667 68.2382 25.905 63.4998 31.75 63.4998C37.595 63.4998 42.3334 68.2382 42.3334 74.0832Z" stroke="url(#paint0_linear_39_46)" stroke-width="5" stroke-linecap="round" stroke-linejoin="round"/>
<defs>
<linearGradient id="paint0_linear_39_46" x1="127" y1="52.9165" x2="127" y2="201.083" gradientUnits="userSpaceOnUse">
<stop stop-color="#C471ED"/>
<stop offset="1" stop-color="#09C7FB"/>
</linearGradient>
</defs>
</svg>
