<svg width="254" height="254" viewBox="0 0 254 254" fill="none" xmlns="http://www.w3.org/2000/svg">
<path d="M222.25 49.6094H158.75C152.428 49.6178 146.209 51.2116 140.662 54.245C135.116 57.2784 130.418 61.6544 127 66.9727C123.582 61.6544 118.884 57.2784 113.338 54.245C107.791 51.2116 101.572 49.6178 95.25 49.6094H31.75C28.066 49.6094 24.5328 51.0728 21.9278 53.6778C19.3228 56.2828 17.8594 59.816 17.8594 63.5V190.5C17.8594 194.184 19.3228 197.717 21.9278 200.322C24.5328 202.927 28.066 204.391 31.75 204.391H95.25C102.084 204.417 108.63 207.143 113.462 211.975C118.294 216.807 121.021 223.354 121.047 230.188C121.047 231.766 121.674 233.281 122.791 234.397C123.907 235.513 125.421 236.141 127 236.141C128.579 236.141 130.093 235.513 131.209 234.397C132.326 233.281 132.953 231.766 132.953 230.188C132.979 223.354 135.706 216.807 140.538 211.975C145.37 207.143 151.916 204.417 158.75 204.391H222.25C225.934 204.391 229.467 202.927 232.072 200.322C234.677 197.717 236.141 194.184 236.141 190.5V63.5C236.141 59.816 234.677 56.2828 232.072 53.6778C229.467 51.0728 225.934 49.6094 222.25 49.6094V49.6094ZM95.25 192.484H31.75C31.2237 192.484 30.719 192.275 30.3468 191.903C29.9747 191.531 29.7656 191.026 29.7656 190.5V63.5C29.7656 62.9737 29.9747 62.469 30.3468 62.0968C30.719 61.7247 31.2237 61.5156 31.75 61.5156H95.25C102.084 61.5418 108.63 64.268 113.462 69.1002C118.294 73.9324 121.021 80.4788 121.047 87.3125V202.704C114.065 196.133 104.837 192.478 95.25 192.484ZM224.234 190.5C224.234 191.026 224.025 191.531 223.653 191.903C223.281 192.275 222.776 192.484 222.25 192.484H158.75C149.159 192.458 139.924 196.116 132.953 202.704V87.3125C132.979 80.4788 135.706 73.9324 140.538 69.1002C145.37 64.268 151.916 61.5418 158.75 61.5156H222.25C222.776 61.5156 223.281 61.7247 223.653 62.0968C224.025 62.469 224.234 62.9737 224.234 63.5V190.5Z" fill="black"/>
<path d="M222.25 49.6094H158.75C152.428 49.6178 146.209 51.2116 140.662 54.245C135.116 57.2784 130.418 61.6544 127 66.9727C123.582 61.6544 118.884 57.2784 113.338 54.245C107.791 51.2116 101.572 49.6178 95.25 49.6094H31.75C28.066 49.6094 24.5328 51.0728 21.9278 53.6778C19.3228 56.2828 17.8594 59.816 17.8594 63.5V190.5C17.8594 194.184 19.3228 197.717 21.9278 200.322C24.5328 202.927 28.066 204.391 31.75 204.391H95.25C102.084 204.417 108.63 207.143 113.462 211.975C118.294 216.807 121.021 223.354 121.047 230.188C121.047 231.766 121.674 233.281 122.791 234.397C123.907 235.513 125.421 236.141 127 236.141C128.579 236.141 130.093 235.513 131.209 234.397C132.326 233.281 132.953 231.766 132.953 230.188C132.979 223.354 135.706 216.807 140.538 211.975C145.37 207.143 151.916 204.417 158.75 204.391H222.25C225.934 204.391 229.467 202.927 232.072 200.322C234.677 197.717 236.141 194.184 236.141 190.5V63.5C236.141 59.816 234.677 56.2828 232.072 53.6778C229.467 51.0728 225.934 49.6094 222.25 49.6094V49.6094ZM95.25 192.484H31.75C31.2237 192.484 30.719 192.275 30.3468 191.903C29.9747 191.531 29.7656 191.026 29.7656 190.5V63.5C29.7656 62.9737 29.9747 62.469 30.3468 62.0968C30.719 61.7247 31.2237 61.5156 31.75 61.5156H95.25C102.084 61.5418 108.63 64.268 113.462 69.1002C118.294 73.9324 121.021 80.4788 121.047 87.3125V202.704C114.065 196.133 104.837 192.478 95.25 192.484ZM224.234 190.5C224.234 191.026 224.025 191.531 223.653 191.903C223.281 192.275 222.776 192.484 222.25 192.484H158.75C149.159 192.458 139.924 196.116 132.953 202.704V87.3125C132.979 80.4788 135.706 73.9324 140.538 69.1002C145.37 64.268 151.916 61.5418 158.75 61.5156H222.25C222.776 61.5156 223.281 61.7247 223.653 62.0968C224.025 62.469 224.234 62.9737 224.234 63.5V190.5Z" fill="url(#paint0_linear_314_23)"/>
<defs>
<linearGradient id="paint0_linear_314_23" x1="127" y1="49.6094" x2="127" y2="236.141" gradientUnits="userSpaceOnUse">
<stop stop-color="#C471ED"/>
<stop offset="1" stop-color="#09C7FB"/>
</linearGradient>
</defs>
</svg>
