<svg width="56" height="55" viewBox="0 0 56 55" fill="none" xmlns="http://www.w3.org/2000/svg">
<path d="M51.0274 12.7184C42.7773 -0.000420439 25.9334 -3.7817 12.8708 4.12461C0.151984 12.0309 -3.97305 29.2186 4.27702 41.9374L4.96452 42.9687L2.2145 53.2812L12.5271 50.5312L13.5583 51.2187C18.0271 53.625 22.8397 55 27.6522 55C32.8085 55 37.9648 53.625 42.4336 50.875C55.1524 42.6249 58.9337 25.781 51.0274 12.7184ZM43.8086 39.1874C42.4336 41.2499 40.7148 42.6249 38.3085 42.9687C36.9335 42.9687 35.2148 43.6562 28.3397 40.9061C22.4959 38.1561 17.6834 33.6873 14.2458 28.531C12.1833 26.1248 11.1521 23.031 10.8083 19.9372C10.8083 17.1872 11.8396 14.7809 13.5583 13.0622C14.2458 12.3747 14.9333 12.0309 15.6209 12.0309H17.3396C18.0271 12.0309 18.7146 12.0309 19.0584 13.4059C19.7459 15.1247 21.4646 19.2497 21.4646 19.5935C21.8084 19.9372 21.8084 20.6247 21.4646 20.9685C21.8084 21.656 21.4646 22.3435 21.1209 22.6873C20.7771 23.031 20.4334 23.7185 20.0896 24.0623C19.4021 24.406 19.0584 25.0935 19.4021 25.781C20.7771 27.8435 22.4959 29.9061 24.2147 31.6248C26.2772 33.3436 28.3397 34.7186 30.746 35.7499C31.4335 36.0936 32.121 36.0936 32.4647 35.4061C32.8085 34.7186 34.5272 32.9998 35.2148 32.3123C35.9023 31.6248 36.246 31.6248 36.9335 31.9686L42.4336 34.7186C43.1211 35.0623 43.8086 35.4061 44.1523 35.7499C44.4961 36.7811 44.4961 38.1561 43.8086 39.1874Z" fill="white"/>
</svg>
