<svg width="120" height="120" viewBox="0 0 120 120" fill="none" xmlns="http://www.w3.org/2000/svg">
<g clip-path="url(#clip0_58_25)">
<path d="M94.175 1.5H25.825C18.9758 1.5 12.4071 4.22084 7.56397 9.06397C2.72084 13.9071 0 20.4758 0 27.325L0 92.675C0 99.5242 2.72084 106.093 7.56397 110.936C12.4071 115.779 18.9758 118.5 25.825 118.5H94.175C101.024 118.5 107.593 115.779 112.436 110.936C117.279 106.093 120 99.5242 120 92.675V27.325C120 20.4758 117.279 13.9071 112.436 9.06397C107.593 4.22084 101.024 1.5 94.175 1.5V1.5ZM63.645 83.955H52.21C51.41 83.955 50.84 83.925 50.52 83.39C49.445 81.295 48.37 79.215 47.3 77.15C46.1936 75.0253 45.0535 72.9184 43.88 70.83C42.6609 68.6684 41.4658 66.4932 40.295 64.305H40.215C39.1313 66.4669 38.0178 68.6138 36.875 70.745C35.725 72.89 34.58 75.025 33.455 77.145C32.331 79.2667 31.1793 81.3736 30 83.465C29.78 83.95 29.405 84 28.865 84H17.84C17.625 84 17.505 84.085 17.48 83.87C17.4511 83.6734 17.4936 83.4729 17.6 83.305L33.135 57.78L18 32.19C17.835 31.975 17.81 31.8 17.92 31.655C17.9792 31.5856 18.054 31.5312 18.1384 31.4965C18.2227 31.4617 18.3141 31.4475 18.405 31.455H29.755C30.0023 31.4447 30.2492 31.4856 30.48 31.575C30.6716 31.6851 30.8357 31.8372 30.96 32.02C31.925 34.17 33 36.315 34.18 38.46C35.36 40.605 36.555 42.725 37.76 44.82C38.965 46.915 40.08 49.035 41.1 51.18H41.18C42.245 48.98 43.33 46.835 44.44 44.74C45.55 42.645 46.675 40.54 47.82 38.42C48.975 36.295 50.085 34.185 51.16 32.1C51.2197 31.8989 51.3299 31.7165 51.48 31.57C51.6796 31.4706 51.903 31.429 52.125 31.45H62.67C62.7886 31.4211 62.9139 31.4401 63.0186 31.5028C63.1234 31.5655 63.1993 31.6668 63.23 31.785C63.251 31.87 63.2476 31.9592 63.2202 32.0423C63.1928 32.1255 63.1425 32.1992 63.075 32.255L63.08 32.275L48.105 56.99L64.125 83.235C64.23 83.42 64.255 83.635 64.205 83.84C64.155 84.02 63.97 83.9 63.645 83.955V83.955ZM102.05 81.855C99.433 82.9451 96.7078 83.7547 93.92 84.27C91.3687 84.7438 88.7799 84.9864 86.185 84.995C82.481 85.0494 78.811 84.2809 75.44 82.745C72.2993 81.2907 69.6737 78.9179 67.91 75.94C65.9717 72.4656 65.0239 68.5259 65.17 64.55C65.1402 60.8552 66.0853 57.2179 67.91 54.005C69.7899 50.732 72.5538 48.0547 75.885 46.28C80.0946 44.0801 84.8317 43.0902 89.57 43.42C90 43.445 90.51 43.485 91.1 43.54V27.68C91.1 27.305 91.26 27.115 91.585 27.115H101.725C101.838 27.0993 101.952 27.1289 102.043 27.1973C102.134 27.2657 102.194 27.3674 102.21 27.48C102.215 27.5198 102.215 27.5602 102.21 27.6V75.185C102.21 76.1 102.25 77.09 102.33 78.165C102.41 79.235 102.48 80.2 102.53 81.06C102.54 81.2256 102.5 81.3905 102.414 81.5326C102.329 81.6746 102.201 81.7871 102.05 81.855V81.855ZM89.765 52.795C90.215 52.84 90.66 52.92 91.095 53.035V75.01C90.5186 75.1815 89.925 75.2888 89.325 75.33C88.6281 75.3862 87.9291 75.4128 87.23 75.41C85.8212 75.4165 84.4204 75.1988 83.08 74.765C81.8128 74.366 80.6556 73.6779 79.7 72.755C78.7031 71.7504 77.934 70.5431 77.445 69.215C76.8458 67.564 76.5593 65.8159 76.6 64.06C76.4946 61.822 77.0699 59.6045 78.25 57.7C79.315 56.12 80.77 54.845 82.475 53.995C84.225 53.13 86.155 52.685 88.11 52.705C88.665 52.715 89.215 52.74 89.765 52.795Z" fill="url(#paint0_linear_58_25)"/>
</g>
<defs>
<linearGradient id="paint0_linear_58_25" x1="60" y1="1.5" x2="60" y2="118.5" gradientUnits="userSpaceOnUse">
<stop stop-color="#09C7FB"/>
<stop offset="1" stop-color="#C471ED"/>
</linearGradient>
<clipPath id="clip0_58_25">
<rect width="120" height="120" fill="white"/>
</clipPath>
</defs>
</svg>
